<svg width="318" height="109" viewBox="0 0 318 109" fill="none" xmlns="http://www.w3.org/2000/svg">
<g filter="url(#filter0_d_461_62)">
<path d="M12.044 68.8C15.668 68.8 18.44 69.46 20.36 70.78C22.304 72.1 23.276 74.164 23.276 76.972C23.276 78.436 23.012 79.696 22.484 80.752C21.98 81.784 21.236 82.636 20.252 83.308C19.268 83.956 18.068 84.436 16.652 84.748C15.236 85.06 13.616 85.216 11.792 85.216H9.524V94H4.988V69.412C6.044 69.172 7.208 69.016 8.48 68.944C9.776 68.848 10.964 68.8 12.044 68.8ZM12.368 72.724C11.216 72.724 10.268 72.76 9.524 72.832V81.328H11.72C13.904 81.328 15.584 81.028 16.76 80.428C17.936 79.804 18.524 78.64 18.524 76.936C18.524 76.12 18.368 75.436 18.056 74.884C17.744 74.332 17.312 73.9 16.76 73.588C16.208 73.276 15.548 73.06 14.78 72.94C14.036 72.796 13.232 72.724 12.368 72.724ZM36.1297 79.096C35.7697 78.976 35.2657 78.856 34.6177 78.736C33.9937 78.592 33.2617 78.52 32.4217 78.52C31.9417 78.52 31.4257 78.568 30.8737 78.664C30.3457 78.76 29.9737 78.844 29.7577 78.916V94H25.4017V76.072C26.2417 75.76 27.2857 75.472 28.5337 75.208C29.8057 74.92 31.2097 74.776 32.7457 74.776C33.0337 74.776 33.3697 74.8 33.7537 74.848C34.1377 74.872 34.5217 74.92 34.9057 74.992C35.2897 75.04 35.6617 75.112 36.0217 75.208C36.3817 75.28 36.6697 75.352 36.8857 75.424L36.1297 79.096ZM55.1492 84.568C55.1492 86.056 54.9332 87.412 54.5012 88.636C54.0692 89.86 53.4572 90.904 52.6652 91.768C51.8732 92.632 50.9132 93.304 49.7852 93.784C48.6812 94.264 47.4572 94.504 46.1132 94.504C44.7692 94.504 43.5452 94.264 42.4412 93.784C41.3372 93.304 40.3892 92.632 39.5972 91.768C38.8052 90.904 38.1812 89.86 37.7252 88.636C37.2932 87.412 37.0772 86.056 37.0772 84.568C37.0772 83.08 37.2932 81.736 37.7252 80.536C38.1812 79.312 38.8052 78.268 39.5972 77.404C40.4132 76.54 41.3732 75.88 42.4772 75.424C43.5812 74.944 44.7932 74.704 46.1132 74.704C47.4332 74.704 48.6452 74.944 49.7492 75.424C50.8772 75.88 51.8372 76.54 52.6292 77.404C53.4212 78.268 54.0332 79.312 54.4652 80.536C54.9212 81.736 55.1492 83.08 55.1492 84.568ZM50.6852 84.568C50.6852 82.696 50.2772 81.22 49.4612 80.14C48.6692 79.036 47.5532 78.484 46.1132 78.484C44.6732 78.484 43.5452 79.036 42.7292 80.14C41.9372 81.22 41.5412 82.696 41.5412 84.568C41.5412 86.464 41.9372 87.964 42.7292 89.068C43.5452 90.172 44.6732 90.724 46.1132 90.724C47.5532 90.724 48.6692 90.172 49.4612 89.068C50.2772 87.964 50.6852 86.464 50.6852 84.568ZM61.2568 84.1C61.2568 85.948 61.6528 87.304 62.4448 88.168C63.2608 89.008 64.3048 89.428 65.5768 89.428C66.2728 89.428 66.9208 89.332 67.5208 89.14C68.1448 88.948 68.6488 88.72 69.0328 88.456V78.7C68.7208 78.628 68.3368 78.568 67.8808 78.52C67.4248 78.448 66.8488 78.412 66.1528 78.412C64.5688 78.412 63.3568 78.94 62.5168 79.996C61.6768 81.028 61.2568 82.396 61.2568 84.1ZM73.3888 92.092C73.3888 95.092 72.6208 97.288 71.0848 98.68C69.5728 100.072 67.2448 100.768 64.1008 100.768C62.9488 100.768 61.8208 100.672 60.7168 100.48C59.6368 100.288 58.6528 100.036 57.7648 99.724L58.5568 96.016C59.3008 96.328 60.1408 96.58 61.0768 96.772C62.0368 96.964 63.0688 97.06 64.1728 97.06C65.9248 97.06 67.1728 96.7 67.9168 95.98C68.6608 95.26 69.0328 94.192 69.0328 92.776V92.056C68.6008 92.272 68.0248 92.488 67.3048 92.704C66.6088 92.92 65.8048 93.028 64.8928 93.028C63.6928 93.028 62.5888 92.836 61.5808 92.452C60.5968 92.068 59.7448 91.504 59.0248 90.76C58.3288 90.016 57.7768 89.092 57.3688 87.988C56.9848 86.86 56.7928 85.564 56.7928 84.1C56.7928 82.732 56.9968 81.472 57.4048 80.32C57.8368 79.168 58.4488 78.184 59.2408 77.368C60.0568 76.552 61.0408 75.916 62.1928 75.46C63.3448 75.004 64.6528 74.776 66.1168 74.776C67.5328 74.776 68.8768 74.884 70.1488 75.1C71.4208 75.316 72.5008 75.544 73.3888 75.784V92.092ZM87.8586 79.096C87.4986 78.976 86.9946 78.856 86.3466 78.736C85.7226 78.592 84.9906 78.52 84.1506 78.52C83.6706 78.52 83.1546 78.568 82.6026 78.664C82.0746 78.76 81.7026 78.844 81.4866 78.916V94H77.1306V76.072C77.9706 75.76 79.0146 75.472 80.2626 75.208C81.5346 74.92 82.9386 74.776 84.4746 74.776C84.7626 74.776 85.0986 74.8 85.4826 74.848C85.8666 74.872 86.2506 74.92 86.6346 74.992C87.0186 75.04 87.3906 75.112 87.7506 75.208C88.1106 75.28 88.3986 75.352 88.6146 75.424L87.8586 79.096ZM96.4741 90.94C97.8181 90.94 98.8381 90.868 99.5341 90.724V85.9C99.2941 85.828 98.9461 85.756 98.4901 85.684C98.0341 85.612 97.5301 85.576 96.9781 85.576C96.4981 85.576 96.0061 85.612 95.5021 85.684C95.0221 85.756 94.5781 85.888 94.1701 86.08C93.7861 86.272 93.4741 86.548 93.2341 86.908C92.9941 87.244 92.8741 87.676 92.8741 88.204C92.8741 89.236 93.1981 89.956 93.8461 90.364C94.4941 90.748 95.3701 90.94 96.4741 90.94ZM96.1141 74.704C97.5541 74.704 98.7661 74.884 99.7501 75.244C100.734 75.604 101.514 76.108 102.09 76.756C102.69 77.404 103.11 78.196 103.35 79.132C103.614 80.044 103.746 81.052 103.746 82.156V93.568C103.074 93.712 102.054 93.88 100.686 94.072C99.3421 94.288 97.8181 94.396 96.1141 94.396C94.9861 94.396 93.9541 94.288 93.0181 94.072C92.0821 93.856 91.2781 93.508 90.6061 93.028C89.9581 92.548 89.4421 91.924 89.0581 91.156C88.6981 90.388 88.5181 89.44 88.5181 88.312C88.5181 87.232 88.7221 86.32 89.1301 85.576C89.5621 84.832 90.1381 84.232 90.8581 83.776C91.5781 83.296 92.4061 82.96 93.3421 82.768C94.3021 82.552 95.2981 82.444 96.3301 82.444C96.8101 82.444 97.3141 82.48 97.8421 82.552C98.3701 82.6 98.9341 82.696 99.5341 82.84V82.12C99.5341 81.616 99.4741 81.136 99.3541 80.68C99.2341 80.224 99.0181 79.828 98.7061 79.492C98.4181 79.132 98.0221 78.856 97.5181 78.664C97.0381 78.472 96.4261 78.376 95.6821 78.376C94.6741 78.376 93.7501 78.448 92.9101 78.592C92.0701 78.736 91.3861 78.904 90.8581 79.096L90.3181 75.568C90.8701 75.376 91.6741 75.184 92.7301 74.992C93.7861 74.8 94.9141 74.704 96.1141 74.704ZM118.009 84.1C118.009 82.132 117.757 80.716 117.253 79.852C116.773 78.964 115.861 78.52 114.517 78.52C114.037 78.52 113.509 78.556 112.933 78.628C112.357 78.7 111.925 78.76 111.637 78.808V94H107.281V75.784C108.121 75.544 109.213 75.316 110.557 75.1C111.925 74.884 113.365 74.776 114.877 74.776C116.173 74.776 117.229 74.944 118.045 75.28C118.885 75.616 119.581 76.06 120.133 76.612C120.397 76.42 120.733 76.216 121.141 76C121.549 75.784 122.005 75.592 122.509 75.424C123.013 75.232 123.541 75.076 124.093 74.956C124.669 74.836 125.245 74.776 125.821 74.776C127.285 74.776 128.485 74.992 129.421 75.424C130.381 75.832 131.125 76.42 131.653 77.188C132.205 77.932 132.577 78.844 132.769 79.924C132.985 80.98 133.093 82.144 133.093 83.416V94H128.737V84.1C128.737 82.132 128.497 80.716 128.017 79.852C127.537 78.964 126.613 78.52 125.245 78.52C124.549 78.52 123.889 78.64 123.265 78.88C122.641 79.096 122.173 79.312 121.861 79.528C122.053 80.128 122.185 80.764 122.257 81.436C122.329 82.108 122.365 82.828 122.365 83.596V94H118.009V84.1ZM143.253 90.94C144.597 90.94 145.617 90.868 146.313 90.724V85.9C146.073 85.828 145.725 85.756 145.269 85.684C144.813 85.612 144.309 85.576 143.757 85.576C143.277 85.576 142.785 85.612 142.281 85.684C141.801 85.756 141.357 85.888 140.949 86.08C140.565 86.272 140.253 86.548 140.013 86.908C139.773 87.244 139.653 87.676 139.653 88.204C139.653 89.236 139.977 89.956 140.625 90.364C141.273 90.748 142.149 90.94 143.253 90.94ZM142.893 74.704C144.333 74.704 145.545 74.884 146.529 75.244C147.513 75.604 148.293 76.108 148.869 76.756C149.469 77.404 149.889 78.196 150.129 79.132C150.393 80.044 150.525 81.052 150.525 82.156V93.568C149.853 93.712 148.833 93.88 147.465 94.072C146.121 94.288 144.597 94.396 142.893 94.396C141.765 94.396 140.733 94.288 139.797 94.072C138.861 93.856 138.057 93.508 137.385 93.028C136.737 92.548 136.221 91.924 135.837 91.156C135.477 90.388 135.297 89.44 135.297 88.312C135.297 87.232 135.501 86.32 135.909 85.576C136.341 84.832 136.917 84.232 137.637 83.776C138.357 83.296 139.185 82.96 140.121 82.768C141.081 82.552 142.077 82.444 143.109 82.444C143.589 82.444 144.093 82.48 144.621 82.552C145.149 82.6 145.713 82.696 146.313 82.84V82.12C146.313 81.616 146.253 81.136 146.133 80.68C146.013 80.224 145.797 79.828 145.485 79.492C145.197 79.132 144.801 78.856 144.297 78.664C143.817 78.472 143.205 78.376 142.461 78.376C141.453 78.376 140.529 78.448 139.689 78.592C138.849 78.736 138.165 78.904 137.637 79.096L137.097 75.568C137.649 75.376 138.453 75.184 139.509 74.992C140.565 74.8 141.693 74.704 142.893 74.704ZM158.776 90.868C159.928 90.868 160.768 90.736 161.296 90.472C161.824 90.184 162.088 89.704 162.088 89.032C162.088 88.408 161.8 87.892 161.224 87.484C160.672 87.076 159.748 86.632 158.452 86.152C157.66 85.864 156.928 85.564 156.256 85.252C155.608 84.916 155.044 84.532 154.564 84.1C154.084 83.668 153.7 83.152 153.412 82.552C153.148 81.928 153.016 81.172 153.016 80.284C153.016 78.556 153.652 77.2 154.924 76.216C156.196 75.208 157.924 74.704 160.108 74.704C161.212 74.704 162.268 74.812 163.276 75.028C164.284 75.22 165.04 75.412 165.544 75.604L164.752 79.132C164.272 78.916 163.66 78.724 162.916 78.556C162.172 78.364 161.308 78.268 160.324 78.268C159.436 78.268 158.716 78.424 158.164 78.736C157.612 79.024 157.336 79.48 157.336 80.104C157.336 80.416 157.384 80.692 157.48 80.932C157.6 81.172 157.792 81.4 158.056 81.616C158.32 81.808 158.668 82.012 159.1 82.228C159.532 82.42 160.06 82.624 160.684 82.84C161.716 83.224 162.592 83.608 163.312 83.992C164.032 84.352 164.62 84.772 165.076 85.252C165.556 85.708 165.904 86.236 166.12 86.836C166.336 87.436 166.444 88.156 166.444 88.996C166.444 90.796 165.772 92.164 164.428 93.1C163.108 94.012 161.212 94.468 158.74 94.468C157.084 94.468 155.752 94.324 154.744 94.036C153.736 93.772 153.028 93.556 152.62 93.388L153.376 89.752C154.024 90.016 154.792 90.268 155.68 90.508C156.592 90.748 157.624 90.868 158.776 90.868ZM175.531 94V69.052H191.551V72.904H180.067V79.06H190.291V82.84H180.067V90.148H192.415V94H175.531ZM199.325 90.868C200.477 90.868 201.317 90.736 201.845 90.472C202.373 90.184 202.637 89.704 202.637 89.032C202.637 88.408 202.349 87.892 201.773 87.484C201.221 87.076 200.297 86.632 199.001 86.152C198.209 85.864 197.477 85.564 196.805 85.252C196.157 84.916 195.593 84.532 195.113 84.1C194.633 83.668 194.249 83.152 193.961 82.552C193.697 81.928 193.565 81.172 193.565 80.284C193.565 78.556 194.201 77.2 195.473 76.216C196.745 75.208 198.473 74.704 200.657 74.704C201.761 74.704 202.817 74.812 203.825 75.028C204.833 75.22 205.589 75.412 206.093 75.604L205.301 79.132C204.821 78.916 204.209 78.724 203.465 78.556C202.721 78.364 201.857 78.268 200.873 78.268C199.985 78.268 199.265 78.424 198.713 78.736C198.161 79.024 197.885 79.48 197.885 80.104C197.885 80.416 197.933 80.692 198.029 80.932C198.149 81.172 198.341 81.4 198.605 81.616C198.869 81.808 199.217 82.012 199.649 82.228C200.081 82.42 200.609 82.624 201.233 82.84C202.265 83.224 203.141 83.608 203.861 83.992C204.581 84.352 205.169 84.772 205.625 85.252C206.105 85.708 206.453 86.236 206.669 86.836C206.885 87.436 206.993 88.156 206.993 88.996C206.993 90.796 206.321 92.164 204.977 93.1C203.657 94.012 201.761 94.468 199.289 94.468C197.633 94.468 196.301 94.324 195.293 94.036C194.285 93.772 193.577 93.556 193.169 93.388L193.925 89.752C194.573 90.016 195.341 90.268 196.229 90.508C197.141 90.748 198.173 90.868 199.325 90.868ZM221.754 84.676C221.754 82.732 221.31 81.22 220.422 80.14C219.558 79.06 218.154 78.52 216.21 78.52C215.802 78.52 215.37 78.544 214.914 78.592C214.482 78.616 214.05 78.688 213.618 78.808V89.572C214.002 89.836 214.506 90.088 215.13 90.328C215.778 90.544 216.462 90.652 217.182 90.652C218.766 90.652 219.918 90.112 220.638 89.032C221.382 87.952 221.754 86.5 221.754 84.676ZM226.218 84.604C226.218 86.044 226.026 87.364 225.642 88.564C225.282 89.764 224.754 90.796 224.058 91.66C223.362 92.524 222.486 93.196 221.43 93.676C220.398 94.156 219.222 94.396 217.902 94.396C217.014 94.396 216.198 94.288 215.454 94.072C214.71 93.856 214.098 93.616 213.618 93.352V100.66H209.262V75.784C210.15 75.544 211.242 75.316 212.538 75.1C213.834 74.884 215.202 74.776 216.642 74.776C218.13 74.776 219.462 75.004 220.638 75.46C221.814 75.916 222.81 76.576 223.626 77.44C224.466 78.28 225.102 79.312 225.534 80.536C225.99 81.736 226.218 83.092 226.218 84.604ZM227.863 84.676C227.863 83.02 228.103 81.568 228.583 80.32C229.087 79.072 229.747 78.04 230.563 77.224C231.379 76.384 232.315 75.76 233.371 75.352C234.427 74.92 235.507 74.704 236.611 74.704C239.203 74.704 241.219 75.508 242.659 77.116C244.123 78.724 244.855 81.124 244.855 84.316C244.855 84.556 244.843 84.832 244.819 85.144C244.819 85.432 244.807 85.696 244.783 85.936H232.363C232.483 87.448 233.011 88.624 233.947 89.464C234.907 90.28 236.287 90.688 238.087 90.688C239.143 90.688 240.103 90.592 240.967 90.4C241.855 90.208 242.551 90.004 243.055 89.788L243.631 93.352C243.391 93.472 243.055 93.604 242.623 93.748C242.215 93.868 241.735 93.976 241.183 94.072C240.655 94.192 240.079 94.288 239.455 94.36C238.831 94.432 238.195 94.468 237.547 94.468C235.891 94.468 234.451 94.228 233.227 93.748C232.003 93.244 230.995 92.56 230.203 91.696C229.411 90.808 228.823 89.776 228.439 88.6C228.055 87.4 227.863 86.092 227.863 84.676ZM240.499 82.732C240.499 82.132 240.415 81.568 240.247 81.04C240.079 80.488 239.827 80.02 239.491 79.636C239.179 79.228 238.783 78.916 238.303 78.7C237.847 78.46 237.295 78.34 236.647 78.34C235.975 78.34 235.387 78.472 234.883 78.736C234.379 78.976 233.947 79.3 233.587 79.708C233.251 80.116 232.987 80.584 232.795 81.112C232.603 81.64 232.471 82.18 232.399 82.732H240.499ZM246.63 84.604C246.63 83.212 246.846 81.916 247.278 80.716C247.71 79.492 248.322 78.436 249.114 77.548C249.93 76.66 250.914 75.964 252.066 75.46C253.218 74.956 254.514 74.704 255.954 74.704C257.73 74.704 259.41 75.028 260.994 75.676L260.058 79.24C259.554 79.024 258.978 78.844 258.33 78.7C257.706 78.556 257.034 78.484 256.314 78.484C254.61 78.484 253.314 79.024 252.426 80.104C251.538 81.16 251.094 82.66 251.094 84.604C251.094 86.476 251.514 87.964 252.354 89.068C253.194 90.148 254.61 90.688 256.602 90.688C257.346 90.688 258.078 90.616 258.798 90.472C259.518 90.328 260.142 90.148 260.67 89.932L261.282 93.532C260.802 93.772 260.07 93.988 259.086 94.18C258.126 94.372 257.13 94.468 256.098 94.468C254.49 94.468 253.086 94.228 251.886 93.748C250.71 93.244 249.726 92.56 248.934 91.696C248.166 90.808 247.59 89.764 247.206 88.564C246.822 87.34 246.63 86.02 246.63 84.604ZM267.246 94H262.89V75.172H267.246V94ZM267.714 69.664C267.714 70.48 267.45 71.128 266.922 71.608C266.394 72.088 265.77 72.328 265.05 72.328C264.306 72.328 263.67 72.088 263.142 71.608C262.614 71.128 262.35 70.48 262.35 69.664C262.35 68.824 262.614 68.164 263.142 67.684C263.67 67.204 264.306 66.964 265.05 66.964C265.77 66.964 266.394 67.204 266.922 67.684C267.45 68.164 267.714 68.824 267.714 69.664ZM277.627 90.94C278.971 90.94 279.991 90.868 280.687 90.724V85.9C280.447 85.828 280.099 85.756 279.643 85.684C279.187 85.612 278.683 85.576 278.131 85.576C277.651 85.576 277.159 85.612 276.655 85.684C276.175 85.756 275.731 85.888 275.323 86.08C274.939 86.272 274.627 86.548 274.387 86.908C274.147 87.244 274.027 87.676 274.027 88.204C274.027 89.236 274.351 89.956 274.999 90.364C275.647 90.748 276.523 90.94 277.627 90.94ZM277.267 74.704C278.707 74.704 279.919 74.884 280.903 75.244C281.887 75.604 282.667 76.108 283.243 76.756C283.843 77.404 284.263 78.196 284.503 79.132C284.767 80.044 284.899 81.052 284.899 82.156V93.568C284.227 93.712 283.207 93.88 281.839 94.072C280.495 94.288 278.971 94.396 277.267 94.396C276.139 94.396 275.107 94.288 274.171 94.072C273.235 93.856 272.431 93.508 271.759 93.028C271.111 92.548 270.595 91.924 270.211 91.156C269.851 90.388 269.671 89.44 269.671 88.312C269.671 87.232 269.875 86.32 270.283 85.576C270.715 84.832 271.291 84.232 272.011 83.776C272.731 83.296 273.559 82.96 274.495 82.768C275.455 82.552 276.451 82.444 277.483 82.444C277.963 82.444 278.467 82.48 278.995 82.552C279.523 82.6 280.087 82.696 280.687 82.84V82.12C280.687 81.616 280.627 81.136 280.507 80.68C280.387 80.224 280.171 79.828 279.859 79.492C279.571 79.132 279.175 78.856 278.671 78.664C278.191 78.472 277.579 78.376 276.835 78.376C275.827 78.376 274.903 78.448 274.063 78.592C273.223 78.736 272.539 78.904 272.011 79.096L271.471 75.568C272.023 75.376 272.827 75.184 273.883 74.992C274.939 74.8 276.067 74.704 277.267 74.704ZM292.826 94H288.47V75.172H292.826V94ZM293.294 69.664C293.294 70.48 293.03 71.128 292.502 71.608C291.974 72.088 291.35 72.328 290.63 72.328C289.886 72.328 289.25 72.088 288.722 71.608C288.194 71.128 287.93 70.48 287.93 69.664C287.93 68.824 288.194 68.164 288.722 67.684C289.25 67.204 289.886 66.964 290.63 66.964C291.35 66.964 291.974 67.204 292.502 67.684C293.03 68.164 293.294 68.824 293.294 69.664ZM301.299 90.868C302.451 90.868 303.291 90.736 303.819 90.472C304.347 90.184 304.611 89.704 304.611 89.032C304.611 88.408 304.323 87.892 303.747 87.484C303.195 87.076 302.271 86.632 300.975 86.152C300.183 85.864 299.451 85.564 298.779 85.252C298.131 84.916 297.567 84.532 297.087 84.1C296.607 83.668 296.223 83.152 295.935 82.552C295.671 81.928 295.539 81.172 295.539 80.284C295.539 78.556 296.175 77.2 297.447 76.216C298.719 75.208 300.447 74.704 302.631 74.704C303.735 74.704 304.791 74.812 305.799 75.028C306.807 75.22 307.563 75.412 308.067 75.604L307.275 79.132C306.795 78.916 306.183 78.724 305.439 78.556C304.695 78.364 303.831 78.268 302.847 78.268C301.959 78.268 301.239 78.424 300.687 78.736C300.135 79.024 299.859 79.48 299.859 80.104C299.859 80.416 299.907 80.692 300.003 80.932C300.123 81.172 300.315 81.4 300.579 81.616C300.843 81.808 301.191 82.012 301.623 82.228C302.055 82.42 302.583 82.624 303.207 82.84C304.239 83.224 305.115 83.608 305.835 83.992C306.555 84.352 307.143 84.772 307.599 85.252C308.079 85.708 308.427 86.236 308.643 86.836C308.859 87.436 308.967 88.156 308.967 88.996C308.967 90.796 308.295 92.164 306.951 93.1C305.631 94.012 303.735 94.468 301.263 94.468C299.607 94.468 298.275 94.324 297.267 94.036C296.259 93.772 295.551 93.556 295.143 93.388L295.899 89.752C296.547 90.016 297.315 90.268 298.203 90.508C299.115 90.748 300.147 90.868 301.299 90.868Z" fill="#EFFBF9"/>
</g>
<g filter="url(#filter1_d_461_62)">
<path d="M20.83 41.67C22.37 41.67 23.63 41.5533 24.61 41.32C25.6367 41.04 26.4533 40.69 27.06 40.27C27.6667 39.8033 28.0867 39.2667 28.32 38.66C28.5533 38.0533 28.67 37.3767 28.67 36.63C28.67 35.0433 27.9233 33.7367 26.43 32.71C24.9367 31.6367 22.37 30.4933 18.73 29.28C17.1433 28.72 15.5567 28.09 13.97 27.39C12.3833 26.6433 10.96 25.7333 9.7 24.66C8.44 23.54 7.41333 22.21 6.62 20.67C5.82667 19.0833 5.43 17.17 5.43 14.93C5.43 12.69 5.85 10.6833 6.69 8.91C7.53 7.09 8.72 5.55 10.26 4.29C11.8 3.03 13.6667 2.07333 15.86 1.42C18.0533 0.719997 20.5267 0.369996 23.28 0.369996C26.5467 0.369996 29.37 0.719997 31.75 1.42C34.13 2.12 36.09 2.89 37.63 3.73L34.48 12.34C33.1267 11.64 31.61 11.0333 29.93 10.52C28.2967 9.96 26.3133 9.68 23.98 9.68C21.3667 9.68 19.4767 10.0533 18.31 10.8C17.19 11.5 16.63 12.5967 16.63 14.09C16.63 14.9767 16.84 15.7233 17.26 16.33C17.68 16.9367 18.2633 17.4967 19.01 18.01C19.8033 18.4767 20.69 18.92 21.67 19.34C22.6967 19.7133 23.8167 20.11 25.03 20.53C27.55 21.4633 29.7433 22.3967 31.61 23.33C33.4767 24.2167 35.0167 25.2667 36.23 26.48C37.49 27.6933 38.4233 29.1167 39.03 30.75C39.6367 32.3833 39.94 34.3667 39.94 36.7C39.94 41.2267 38.3533 44.75 35.18 47.27C32.0067 49.7433 27.2233 50.98 20.83 50.98C18.6833 50.98 16.7467 50.84 15.02 50.56C13.2933 50.3267 11.7533 50.0233 10.4 49.65C9.09333 49.2767 7.95 48.88 6.97 48.46C6.03667 48.04 5.24333 47.6433 4.59 47.27L7.67 38.59C9.11667 39.3833 10.89 40.1067 12.99 40.76C15.1367 41.3667 17.75 41.67 20.83 41.67ZM45.8922 31.87C45.8922 28.6033 46.3822 25.7567 47.3622 23.33C48.3889 20.8567 49.7189 18.8033 51.3522 17.17C52.9855 15.5367 54.8522 14.3 56.9522 13.46C59.0989 12.62 61.2922 12.2 63.5322 12.2C68.7589 12.2 72.8889 13.81 75.9222 17.03C78.9555 20.2033 80.4722 24.8933 80.4722 31.1C80.4722 31.7067 80.4489 32.3833 80.4022 33.13C80.3555 33.83 80.3089 34.46 80.2622 35.02H56.6022C56.8355 37.1667 57.8389 38.87 59.6122 40.13C61.3855 41.39 63.7655 42.02 66.7522 42.02C68.6655 42.02 70.5322 41.8567 72.3522 41.53C74.2189 41.1567 75.7355 40.7133 76.9022 40.2L78.3022 48.67C77.7422 48.95 76.9955 49.23 76.0622 49.51C75.1289 49.79 74.0789 50.0233 72.9122 50.21C71.7922 50.4433 70.5789 50.63 69.2722 50.77C67.9655 50.91 66.6589 50.98 65.3522 50.98C62.0389 50.98 59.1455 50.49 56.6722 49.51C54.2455 48.53 52.2155 47.2 50.5822 45.52C48.9955 43.7933 47.8055 41.7633 47.0122 39.43C46.2655 37.0967 45.8922 34.5767 45.8922 31.87ZM70.3922 27.88C70.3455 26.9933 70.1822 26.13 69.9022 25.29C69.6689 24.45 69.2722 23.7033 68.7122 23.05C68.1989 22.3967 67.5222 21.86 66.6822 21.44C65.8889 21.02 64.8855 20.81 63.6722 20.81C62.5055 20.81 61.5022 21.02 60.6622 21.44C59.8222 21.8133 59.1222 22.3267 58.5622 22.98C58.0022 23.6333 57.5589 24.4033 57.2322 25.29C56.9522 26.13 56.7422 26.9933 56.6022 27.88H70.3922ZM88.5211 14.44C90.2944 13.9267 92.5811 13.46 95.3811 13.04C98.1811 12.5733 101.121 12.34 104.201 12.34C107.328 12.34 109.918 12.76 111.971 13.6C114.071 14.3933 115.728 15.5367 116.941 17.03C118.154 18.5233 119.018 20.2967 119.531 22.35C120.044 24.4033 120.301 26.69 120.301 29.21V50H109.871V30.47C109.871 27.11 109.428 24.73 108.541 23.33C107.654 21.93 105.998 21.23 103.571 21.23C102.824 21.23 102.031 21.2767 101.191 21.37C100.351 21.4167 99.6044 21.4867 98.9511 21.58V50H88.5211V14.44ZM143.812 42.72C144.838 42.72 145.818 42.6967 146.752 42.65C147.685 42.6033 148.432 42.5333 148.992 42.44V34.53C148.572 34.4367 147.942 34.3433 147.102 34.25C146.262 34.1567 145.492 34.11 144.792 34.11C143.812 34.11 142.878 34.18 141.992 34.32C141.152 34.4133 140.405 34.6233 139.752 34.95C139.098 35.2767 138.585 35.72 138.212 36.28C137.838 36.84 137.652 37.54 137.652 38.38C137.652 40.0133 138.188 41.1567 139.262 41.81C140.382 42.4167 141.898 42.72 143.812 42.72ZM142.972 12.2C146.052 12.2 148.618 12.55 150.672 13.25C152.725 13.95 154.358 14.9533 155.572 16.26C156.832 17.5667 157.718 19.1533 158.232 21.02C158.745 22.8867 159.002 24.9633 159.002 27.25V48.95C157.508 49.2767 155.432 49.65 152.772 50.07C150.112 50.5367 146.892 50.77 143.112 50.77C140.732 50.77 138.562 50.56 136.602 50.14C134.688 49.72 133.032 49.0433 131.632 48.11C130.232 47.13 129.158 45.87 128.412 44.33C127.665 42.79 127.292 40.9 127.292 38.66C127.292 36.5133 127.712 34.6933 128.552 33.2C129.438 31.7067 130.605 30.5167 132.052 29.63C133.498 28.7433 135.155 28.1133 137.022 27.74C138.888 27.32 140.825 27.11 142.832 27.11C144.185 27.11 145.375 27.18 146.402 27.32C147.475 27.4133 148.338 27.5533 148.992 27.74V26.76C148.992 24.9867 148.455 23.5633 147.382 22.49C146.308 21.4167 144.442 20.88 141.782 20.88C140.008 20.88 138.258 21.02 136.532 21.3C134.805 21.5333 133.312 21.8833 132.052 22.35L130.722 13.95C131.328 13.7633 132.075 13.5767 132.962 13.39C133.895 13.1567 134.898 12.97 135.972 12.83C137.045 12.6433 138.165 12.5033 139.332 12.41C140.545 12.27 141.758 12.2 142.972 12.2ZM190.623 22.42C189.69 22.1867 188.593 21.9533 187.333 21.72C186.073 21.44 184.72 21.3 183.273 21.3C182.62 21.3 181.827 21.37 180.893 21.51C180.007 21.6033 179.33 21.72 178.863 21.86V50H168.433V15.14C170.3 14.4867 172.493 13.88 175.013 13.32C177.58 12.7133 180.427 12.41 183.553 12.41C184.113 12.41 184.79 12.4567 185.583 12.55C186.377 12.5967 187.17 12.69 187.963 12.83C188.757 12.9233 189.55 13.0633 190.343 13.25C191.137 13.39 191.813 13.5767 192.373 13.81L190.623 22.42ZM228.361 1.49C229.201 3.03 230.158 4.94333 231.231 7.23C232.351 9.47 233.494 11.92 234.661 14.58C235.874 17.1933 237.064 19.8767 238.231 22.63C239.398 25.3833 240.494 27.9733 241.521 30.4C242.548 27.9733 243.644 25.3833 244.811 22.63C245.978 19.8767 247.144 17.1933 248.311 14.58C249.524 11.92 250.668 9.47 251.741 7.23C252.861 4.94333 253.841 3.03 254.681 1.49H264.621C265.088 4.71 265.508 8.32666 265.881 12.34C266.301 16.3067 266.651 20.46 266.931 24.8C267.258 29.0933 267.538 33.41 267.771 37.75C268.051 42.09 268.284 46.1733 268.471 50H257.831C257.691 45.2867 257.504 40.1533 257.271 34.6C257.038 29.0467 256.688 23.4467 256.221 17.8C255.381 19.76 254.448 21.93 253.421 24.31C252.394 26.69 251.368 29.07 250.341 31.45C249.361 33.83 248.404 36.1167 247.471 38.31C246.538 40.4567 245.744 42.3 245.091 43.84H237.461C236.808 42.3 236.014 40.4567 235.081 38.31C234.148 36.1167 233.168 33.83 232.141 31.45C231.161 29.07 230.158 26.69 229.131 24.31C228.104 21.93 227.171 19.76 226.331 17.8C225.864 23.4467 225.514 29.0467 225.281 34.6C225.048 40.1533 224.861 45.2867 224.721 50H214.081C214.268 46.1733 214.478 42.09 214.711 37.75C214.991 33.41 215.271 29.0933 215.551 24.8C215.878 20.46 216.228 16.3067 216.601 12.34C217.021 8.32666 217.464 4.71 217.931 1.49H228.361ZM313.6 1.49V10.8H298.97V50H288.05V10.8H273.42V1.49H313.6Z" fill="#EFFBF9"/>
</g>
<defs>
<filter id="filter0_d_461_62" x="0.987793" y="66.9648" width="311.979" height="41.8047" filterUnits="userSpaceOnUse" color-interpolation-filters="sRGB">
<feFlood flood-opacity="0" result="BackgroundImageFix"/>
<feColorMatrix in="SourceAlpha" type="matrix" values="0 0 0 0 0 0 0 0 0 0 0 0 0 0 0 0 0 0 127 0" result="hardAlpha"/>
<feOffset dy="4"/>
<feGaussianBlur stdDeviation="2"/>
<feComposite in2="hardAlpha" operator="out"/>
<feColorMatrix type="matrix" values="0 0 0 0 0 0 0 0 0 0 0 0 0 0 0 0 0 0 0.35 0"/>
<feBlend mode="normal" in2="BackgroundImageFix" result="effect1_dropShadow_461_62"/>
<feBlend mode="normal" in="SourceGraphic" in2="effect1_dropShadow_461_62" result="shape"/>
</filter>
<filter id="filter1_d_461_62" x="0.589844" y="0.371094" width="317.01" height="58.6094" filterUnits="userSpaceOnUse" color-interpolation-filters="sRGB">
<feFlood flood-opacity="0" result="BackgroundImageFix"/>
<feColorMatrix in="SourceAlpha" type="matrix" values="0 0 0 0 0 0 0 0 0 0 0 0 0 0 0 0 0 0 127 0" result="hardAlpha"/>
<feOffset dy="4"/>
<feGaussianBlur stdDeviation="2"/>
<feComposite in2="hardAlpha" operator="out"/>
<feColorMatrix type="matrix" values="0 0 0 0 0 0 0 0 0 0 0 0 0 0 0 0 0 0 0.35 0"/>
<feBlend mode="normal" in2="BackgroundImageFix" result="effect1_dropShadow_461_62"/>
<feBlend mode="normal" in="SourceGraphic" in2="effect1_dropShadow_461_62" result="shape"/>
</filter>
</defs>
</svg>
